<svg width="486" height="493" viewBox="0 0 486 493" fill="none" xmlns="http://www.w3.org/2000/svg">
<g filter="url(#filter0_d_309_609)">
<path fill-rule="evenodd" clip-rule="evenodd" d="M34 24C28.4772 24 24 28.4772 24 34V475C24 480.523 28.4772 485 34 485H393C398.523 485 403 480.523 403 475V192H441C447.627 192 453 186.627 453 180C453 173.373 447.627 168 441 168H403H390C383.373 168 378 162.627 378 156C378 149.373 383.373 144 390 144H403H466C472.627 144 478 138.627 478 132C478 125.373 472.627 120 466 120H403V34C403 28.4772 398.523 24 393 24H34Z" fill="#78B2C4"/>
</g>
<defs>
<filter id="filter0_d_309_609" x="0" y="0" width="486" height="493" filterUnits="userSpaceOnUse" color-interpolation-filters="sRGB">
<feFlood flood-opacity="0" result="BackgroundImageFix"/>
<feColorMatrix in="SourceAlpha" type="matrix" values="0 0 0 0 0 0 0 0 0 0 0 0 0 0 0 0 0 0 127 0" result="hardAlpha"/>
<feOffset dx="-8" dy="-8"/>
<feGaussianBlur stdDeviation="8"/>
<feComposite in2="hardAlpha" operator="out"/>
<feColorMatrix type="matrix" values="0 0 0 0 0 0 0 0 0 0 0 0 0 0 0 0 0 0 0.25 0"/>
<feBlend mode="normal" in2="BackgroundImageFix" result="effect1_dropShadow_309_609"/>
<feBlend mode="normal" in="SourceGraphic" in2="effect1_dropShadow_309_609" result="shape"/>
</filter>
</defs>
</svg>
