<svg width="375" height="603" viewBox="0 0 375 603" fill="none" xmlns="http://www.w3.org/2000/svg">
<g filter="url(#filter0_d_313_573)">
<path fill-rule="evenodd" clip-rule="evenodd" d="M34 24C28.4772 24 24 28.4771 24 34V519C24 524.523 28.4772 529 34 529H39.8573V557.267C39.8573 563.894 45.2299 569.267 51.8573 569.267C58.4847 569.267 63.8573 563.894 63.8573 557.267V506.267C63.8573 505.933 63.8437 505.603 63.817 505.276C64.4076 499.201 69.5293 494.452 75.7602 494.452C82.3876 494.452 87.7602 499.824 87.7602 506.452V506.514C87.7598 506.555 87.7596 506.596 87.7596 506.637V582.637C87.7596 589.264 93.1322 594.637 99.7596 594.637C106.387 594.637 111.76 589.264 111.76 582.637L111.76 529H357C362.523 529 367 524.523 367 519V34C367 28.4772 362.523 24 357 24H34Z" fill="#78B2C4"/>
</g>
<defs>
<filter id="filter0_d_313_573" x="0" y="0" width="375" height="602.637" filterUnits="userSpaceOnUse" color-interpolation-filters="sRGB">
<feFlood flood-opacity="0" result="BackgroundImageFix"/>
<feColorMatrix in="SourceAlpha" type="matrix" values="0 0 0 0 0 0 0 0 0 0 0 0 0 0 0 0 0 0 127 0" result="hardAlpha"/>
<feOffset dx="-8" dy="-8"/>
<feGaussianBlur stdDeviation="8"/>
<feComposite in2="hardAlpha" operator="out"/>
<feColorMatrix type="matrix" values="0 0 0 0 0 0 0 0 0 0 0 0 0 0 0 0 0 0 0.25 0"/>
<feBlend mode="normal" in2="BackgroundImageFix" result="effect1_dropShadow_313_573"/>
<feBlend mode="normal" in="SourceGraphic" in2="effect1_dropShadow_313_573" result="shape"/>
</filter>
</defs>
</svg>
